<?xml version="1.0" encoding="iso-8859-1"?>
<!-- Generator: Adobe Illustrator 19.0.0, SVG Export Plug-In . SVG Version: 6.00 Build 0)  -->
<svg version="1.1" id="Layer_1" xmlns="http://www.w3.org/2000/svg" xmlns:xlink="http://www.w3.org/1999/xlink" x="0px" y="0px"
	 viewBox="0 0 512 512" style="enable-background:new 0 0 512 512;" xml:space="preserve">
<g>
	<g>
		<path d="M464.917,2.586C463.167,0.836,460.604,0,457.339,0C437.23,0,390.48,31.766,343.573,78.672
			c-20.469,20.469-38.063,40.906-51.375,59.109c-1.625-0.18-3.25-0.289-4.875-0.289c-8.938,0-17.891,2.805-25.406,8.398
			c-20.641-9.109-46.078-18.016-74.031-25.508c-41.031-10.992-78.906-16.641-105.406-16.641c-21.625,0-35.672,3.758-37.719,11.422
			c-4.594,17.07,52.094,47.086,126.563,67.039c27.953,7.492,54.438,12.5,76.859,14.93c2.078,4.789,5.063,9.281,8.984,13.203
			c1.75,1.758,3.625,3.32,5.594,4.711L244.667,512h85.344l-7.609-118.297C332.729,412.094,342.636,423,350.339,423
			c0.672,0,1.344-0.086,1.984-0.258c17.078-4.578,14.734-68.656-5.219-143.133c-7.484-27.953-16.406-53.391-25.5-74.031
			c6.609-8.891,9.313-19.766,8.094-30.289c18.219-13.32,38.656-30.898,59.125-51.367C443.339,69.406,477.417,15.078,464.917,2.586z
			 M244.948,175.289c-20.547-2.563-44.063-7.242-68.109-13.688c-29.078-7.796-56.891-17.663-78.297-27.781
			c-6.875-3.242-12.375-6.164-16.813-8.742c0.25,0,0.5,0,0.75,0c25.719,0,62.125,5.797,99.875,15.914
			c23.734,6.359,46.578,14.094,65.813,22.219C246.511,167.086,245.417,171.156,244.948,175.289z M272.245,165.078
			c4.031-4.031,9.391-6.25,15.078-6.25c5.703,0,11.063,2.219,15.094,6.25c8.313,8.32,8.313,21.852,0,30.172
			c-4.031,4.023-9.391,6.242-15.094,6.242c-5.688,0-11.047-2.219-15.078-6.242C263.917,186.93,263.917,173.398,272.245,165.078z
			 M267.355,490.664l13.031-214.047c1.5,6.414,3.125,12.945,4.906,19.555c3.688,13.813,7.75,27.008,12,39.32l9.969,155.172H267.355z
			 M326.511,285.132c7.781,29.087,13.14,58.102,15.093,81.696c0.625,7.578,0.844,13.82,0.813,18.945
			c-2.563-4.422-5.5-9.945-8.75-16.82c-10.125-21.406-19.969-49.211-27.781-78.297c-6.344-23.734-11.078-47.391-13.656-68.117
			c4.125-0.477,8.188-1.547,12.047-3.227C312.418,238.554,320.136,261.406,326.511,285.132z M321.589,154.727
			c-1.234-1.648-2.594-3.234-4.078-4.734c-1.5-1.5-3.094-2.859-4.75-4.086c12.594-16.656,28.531-34.781,45.891-52.148
			c21.297-21.297,43.734-40.445,63.203-53.93c6.25-4.328,11.547-7.641,16-10.18c-2.547,4.445-5.875,9.742-10.188,15.984
			c-13.484,19.469-32.641,41.914-53.938,63.211C356.37,126.203,338.245,142.125,321.589,154.727z"/>
	</g>
</g>
<g>
</g>
<g>
</g>
<g>
</g>
<g>
</g>
<g>
</g>
<g>
</g>
<g>
</g>
<g>
</g>
<g>
</g>
<g>
</g>
<g>
</g>
<g>
</g>
<g>
</g>
<g>
</g>
<g>
</g>
</svg>
